<svg style="display: none;" aria-hidden="true" xmlns="http://www.w3.org/2000/svg" xmlns:xlink="http://www.w3.org/1999/xlink"><symbol viewBox="0 0 56 56" id="svg-account"><path d="M42 32C44.612 32 46.836 33.67 47.66 36H28V35H14C13.2545 35 12.5358 35.2775 11.9838 35.7785C11.4318 36.2795 11.0861 36.968 11.014 37.71L11 38V39.43C11 44.778 17.778 49 28 49V48H42.942C39.362 50.486 34.122 52 28 52C16.42 52 8 46.866 8 39.43V38C8 36.4087 8.63214 34.8826 9.75736 33.7574C10.8826 32.6321 12.4087 32 14 32H42ZM48 38V39.43C48 39.964 47.954 40.488 47.86 41H28V38H48ZM47.258 43H28V46H45.268C46.122 45.078 46.794 44.072 47.258 43ZM39.908 14.5C40.0321 15.4961 40.0321 16.5038 39.908 17.5H28V14.5H39.908ZM39.482 12.5C39.1587 11.4402 38.6895 10.4305 38.088 9.5H28V12.5H39.48H39.482ZM28 4C31.306 4 34.3 5.338 36.47 7.5H28V7C25.6131 7 23.3239 7.94821 21.636 9.63604C19.9482 11.3239 19 13.613 19 16C19 18.3869 19.9482 20.6761 21.636 22.364C23.3239 24.0518 25.6131 25 28 25V24.5H36.47C35.0728 25.8924 33.3539 26.9189 31.4654 27.4886C29.5769 28.0583 27.5771 28.1537 25.6429 27.7663C23.7088 27.379 21.9 26.5208 20.3765 25.2677C18.8531 24.0147 17.6621 22.4054 16.9088 20.5823C16.1556 18.7593 15.8634 16.7786 16.058 14.8157C16.2527 12.8528 16.9283 10.9681 18.0249 9.32849C19.1216 7.68889 20.6055 6.3449 22.3454 5.4155C24.0853 4.48609 26.0274 3.99991 28 4ZM38.088 22.5H28V19.5H39.48C39.156 20.572 38.684 21.58 38.088 22.5Z"/></symbol><symbol viewBox="0 0 24 24" id="svg-arrow-down"><path d="M19.92 8.95L13.4 15.47C12.63 16.24 11.37 16.24 10.6 15.47L4.07999 8.95"/></symbol><symbol viewBox="0 0 56 56" id="svg-balance"><path d="M15.166 23.3334H10.4993V39.6667H15.166V23.3334ZM29.166 23.3334H24.4993V39.6667H29.166V23.3334ZM48.9993 44.3334H4.66602V49H48.9993V44.3334ZM43.166 23.3334H38.4993V39.6667H43.166V23.3334ZM26.8327 7.60671L38.9893 14H14.676L26.8327 7.60671ZM26.8327 2.33337L4.66602 14V18.6667H48.9993V14L26.8327 2.33337Z"/></symbol><symbol viewBox="0 0 22 18" id="svg-currency"><path fill-rule="evenodd" clip-rule="evenodd" d="M17.6666 0C18.2189 0 18.6666 0.447715 18.6666 1V15.597C18.6666 15.5971 18.6666 15.5969 18.6666 15.597C18.6667 16.1288 18.4903 16.6458 18.1649 17.0663C17.8395 17.487 17.3835 17.7876 16.8687 17.921C16.3539 18.0544 15.8093 18.0131 15.3206 17.8034C14.8319 17.5938 14.4266 17.2278 14.1685 16.763C14.1684 16.7629 14.1685 16.763 14.1685 16.763L6.08314 2.20828C6.04012 2.13079 5.97245 2.06957 5.89099 2.03463C5.80953 1.99969 5.71877 1.9928 5.63297 2.01503C5.54717 2.03727 5.47118 2.08737 5.41694 2.15748C5.3627 2.22759 5.33329 2.31373 5.33331 2.40236V17C5.33331 17.5523 4.8856 18 4.33331 18C3.78103 18 3.33331 17.5523 3.33331 17L3.33331 2.40297C3.33331 2.40287 3.33331 2.40307 3.33331 2.40297C3.33322 1.87125 3.50971 1.35424 3.83507 0.933679C4.1605 0.513038 4.61643 0.212401 5.13125 0.0789863C5.64607 -0.0544283 6.19063 -0.0130634 6.67939 0.196584C7.16809 0.4062 7.57332 0.772176 7.83149 1.23705C7.83152 1.23712 7.83145 1.23698 7.83149 1.23705L15.9168 15.7917C15.9598 15.8692 16.0275 15.9304 16.109 15.9654C16.1904 16.0003 16.2812 16.0072 16.367 15.985C16.4528 15.9627 16.5288 15.9126 16.583 15.8425C16.6373 15.7724 16.6667 15.6863 16.6666 15.5976L16.6666 1C16.6666 0.447715 17.1144 0 17.6666 0Z" fill-opacity=".4"/><path fill-rule="evenodd" clip-rule="evenodd" d="M.666656 6.33325C.666656 5.78097 1.11437 5.33325 1.66666 5.33325H20.3333C20.8856 5.33325 21.3333 5.78097 21.3333 6.33325 21.3333 6.88554 20.8856 7.33325 20.3333 7.33325H1.66666C1.11437 7.33325.666656 6.88554.666656 6.33325zM.666656 11.6667C.666656 11.1145 1.11437 10.6667 1.66666 10.6667H20.3333C20.8856 10.6667 21.3333 11.1145 21.3333 11.6667 21.3333 12.219 20.8856 12.6667 20.3333 12.6667H1.66666C1.11437 12.6667.666656 12.219.666656 11.6667z" fill-opacity=".4"/></symbol><symbol viewBox="0 0 32 32" id="svg-dollar"><path d="M23 20.515C23 15.9 19.22 15.374 16.183 14.952C12.873 14.492 11 14.092 11 11.242C11 8.85 13.507 8 15.654 8C16.724 7.96544 17.7868 8.18569 18.7549 8.64262C19.723 9.09954 20.5686 9.78004 21.222 10.628L22.778 9.372C22.0783 8.47217 21.2076 7.71952 20.216 7.1573C19.2244 6.59509 18.1315 6.23441 17 6.096V3H15V6.022C11.385 6.242 9.00005 8.282 9.00005 11.242C9.00005 15.972 12.83 16.505 15.907 16.932C19.16 17.385 21 17.774 21 20.515C21 23.547 17.867 24 16 24C12.57 24 11.122 23.036 9.77805 21.372L8.22205 22.628C9.01481 23.6727 10.0402 24.5182 11.2167 25.0975C12.3933 25.6767 13.6887 25.9737 15 25.965V29H17V25.955C20.726 25.651 23 23.628 23 20.515Z" fill-opacity=".4"/></symbol><symbol viewBox="0 0 56 56" id="svg-download"><path d="M49 43.75L46.5255 41.2755L42 45.801V31.5H38.5V45.801L33.9745 41.2755L31.5 43.75L40.25 52.5L49 43.75Z"/><path d="M17.5 49V17.5H38.5V26.25H42V10.5C41.9991 9.57203 41.63 8.68233 40.9739 8.02615C40.3177 7.36997 39.428 7.00093 38.5 7H17.5C16.572 7.00093 15.6823 7.36997 15.0261 8.02615C14.37 8.68233 14.0009 9.57203 14 10.5V49C14.0009 49.928 14.37 50.8177 15.0261 51.4739C15.6823 52.13 16.572 52.4991 17.5 52.5H28V49H17.5ZM17.5 10.5H38.5V14H17.5V10.5Z"/></symbol><symbol viewBox="0 0 19 34" id="svg-facebook"><path d="M18.4545 1H13.6942C11.59 1 9.572 1.84285 8.08411 3.34315C6.59622 4.84344 5.76033 6.87827 5.76033 9V13.8H1V20.2H5.76033V33H12.1074V20.2H16.8678L18.4545 13.8H12.1074V9C12.1074 8.57565 12.2746 8.16869 12.5722 7.86863C12.8698 7.56857 13.2734 7.4 13.6942 7.4H18.4545V1Z"/></symbol><symbol viewBox="0 0 32 32" id="svg-instagram"><path fill-rule="evenodd" clip-rule="evenodd" d="M8.53496 1.5C4.64966 1.5 1.5 4.64966 1.5 8.53496V23.6049C1.5 27.4902 4.64966 30.6398 8.53496 30.6398H23.6049C27.4902 30.6398 30.6398 27.4902 30.6398 23.6049V8.53496C30.6398 4.64966 27.4902 1.5 23.6049 1.5H8.53496ZM0.5 8.53496C0.5 4.09737 4.09737 0.5 8.53496 0.5H23.6049C28.0425 0.5 31.6398 4.09737 31.6398 8.53496V23.6049C31.6398 28.0425 28.0425 31.6398 23.6049 31.6398H8.53496C4.09737 31.6398 0.5 28.0425 0.5 23.6049V8.53496ZM16.9462 10.5363C15.796 10.3657 14.6214 10.5622 13.5893 11.0977C12.5573 11.6332 11.7203 12.4805 11.1976 13.5191C10.6748 14.5577 10.4929 15.7347 10.6776 16.8827C10.8623 18.0306 11.4043 19.0911 12.2265 19.9133C13.0487 20.7355 14.1091 21.2775 15.2571 21.4622C16.4051 21.6469 17.5821 21.465 18.6207 20.9422C19.6593 20.4195 20.5066 19.5825 21.0421 18.5504C21.5776 17.5184 21.7741 16.3437 21.6035 15.1936C21.4295 14.0204 20.8829 12.9342 20.0442 12.0956C19.2056 11.2569 18.1194 10.7102 16.9462 10.5363ZM13.1288 10.2101C14.3475 9.57766 15.7347 9.34567 17.0929 9.54708C18.4783 9.75252 19.7609 10.3981 20.7513 11.3885C21.7417 12.3788 22.3873 13.6615 22.5927 15.0469C22.7941 16.4051 22.5621 17.7923 21.9297 19.011C21.2973 20.2298 20.2967 21.2181 19.0703 21.8354C17.8438 22.4528 16.4539 22.6676 15.0982 22.4495C13.7426 22.2314 12.4903 21.5913 11.5194 20.6204C10.5485 19.6495 9.90842 18.3972 9.69028 17.0415C9.47214 15.6859 9.68702 14.296 10.3043 13.0695C10.9217 11.8431 11.91 10.8425 13.1288 10.2101ZM24.3584 7.28148C24.0822 7.28148 23.8584 7.50534 23.8584 7.78148C23.8584 8.05762 24.0822 8.28148 24.3584 8.28148H24.3756C24.6518 8.28148 24.8756 8.05762 24.8756 7.78148C24.8756 7.50534 24.6518 7.28148 24.3756 7.28148H24.3584Z"/></symbol><symbol viewBox="0 0 54 55" id="svg-money-bag"><g filter="url(#ifilter0_d_251_111)" fill-opacity=".4"><path d="M11.2275 40.3245C11.9491 40.3245 12.534 39.9256 12.534 39.4335C12.534 38.9414 11.9491 38.5425 11.2275 38.5425C10.506 38.5425 9.92102 38.9414 9.92102 39.4335C9.92102 39.9256 10.506 40.3245 11.2275 40.3245Z"/><path d="M49.5 35.0017L49.0095 34.7137C48.972 34.692 45.2243 32.4683 44.2927 29.7698L44.085 29.172L43.701 29.6737C43.689 29.6895 43.1565 30.348 41.6663 31.1205C40.563 24.8407 36.81 17.3438 31.878 14.1473C33.288 14.2613 34.7025 14.1442 36.0675 13.6478C36.8895 13.3493 36.5347 12.0097 35.7052 12.3127C34.5862 12.72 33.465 12.831 32.346 12.774C35.0932 10.2562 37.2503 6.3975 37.2503 3.576C37.2503 2.898 37.2502 1.63575 36.2453 1.63575C35.8417 1.63575 35.5155 1.88775 35.0647 2.23575C34.3732 2.769 33.3293 3.576 31.7955 3.576C31.2113 3.576 30.1418 2.9595 29.2822 2.4645C28.2435 1.86675 27.5798 1.5 27.0217 1.5C26.0977 1.5 24.7395 2.247 23.541 2.90625C23.0535 3.174 22.3868 3.5415 22.2488 3.57675C20.5118 3.57675 19.503 2.77575 18.834 2.2455C18.444 1.935 18.1613 1.71 17.784 1.71C16.7955 1.71 16.7955 2.89575 16.7955 4.269C16.7955 6.9195 18.8145 10.4182 21.4583 12.7695C19.7925 12.8887 18.15 13.392 16.9957 14.5103C16.3582 15.1267 17.3242 16.1047 17.9595 15.4897C18.9187 14.5597 20.1765 14.1615 21.522 14.0842C21.5602 14.2215 21.6068 14.3565 21.6637 14.4893C16.0268 18.54 12.0225 28.1587 12.0225 34.6522C12.0225 35.2927 12.072 35.8725 12.1485 36.4185C10.695 35.7728 10.1647 35.2065 10.1542 35.1937L9.76725 34.7475L9.57675 35.31C8.7345 37.788 5.073 39.9375 5.03625 39.9593L4.5 40.2705L5.04525 40.5653C5.2365 40.6688 5.42625 40.7595 5.6175 40.8577L5.2725 41.097L5.45475 43.377L19.7445 46.5L25.1625 43.0343C25.7092 43.0373 26.2628 43.0387 26.826 43.0387L33.159 46.5L47.4757 42V39.5933L47.097 39.366C47.286 39.246 47.475 39.1238 47.6632 38.9977L48.165 38.6625L48.0548 38.6085L48.693 38.4338L48.801 35.9318L48.432 35.67C48.6285 35.5522 48.8242 35.4323 49.0208 35.3078L49.5 35.0017ZM18.1597 4.269C18.1597 3.936 18.1643 3.6765 18.171 3.47475C18.2858 3.56475 18.4193 3.663 18.5618 3.76425C18.999 4.81125 19.8263 6.31875 21.2288 7.26825C22.9328 8.42325 22.7062 7.09575 23.6152 5.88375C24.5243 4.6725 25.1392 4.038 26.6618 7.1535C27.3255 8.51175 28.4318 4.716 29.4832 4.16175C29.7615 4.31325 30.039 4.45425 30.3113 4.57425C32.1968 7.64025 33.0705 6.684 34.7453 4.1355C35.2057 3.8655 35.5837 3.576 35.8845 3.34425C35.886 3.414 35.8875 3.49125 35.8875 3.5775C35.8875 5.985 33.9202 9.438 31.5112 11.6903C31.3975 11.4012 31.2346 11.134 31.0298 10.9005C30.057 9.79875 28.5368 11.0205 27.816 11.8222C26.5373 11.4113 24.4538 10.2795 23.0963 10.9275C22.7582 11.0843 22.4477 11.2948 22.1768 11.5507C19.9567 9.52725 18.1597 6.606 18.1597 4.269ZM30.3127 12.4995C29.9765 12.4282 29.6421 12.3482 29.31 12.2595C29.7285 11.8988 30.1125 11.7728 30.2738 12.309C30.291 12.3675 30.3015 12.4342 30.3127 12.4995ZM24.6127 12.9653C24.3645 12.918 24.1095 12.8752 23.847 12.8415C23.648 12.7167 23.4531 12.5854 23.2628 12.4478C23.9482 11.988 25.1303 12.2325 26.2598 12.6157C25.7025 12.672 25.1528 12.7935 24.6127 12.9653ZM24.9533 14.9452C24.5333 15.0503 24.0758 15.0083 23.6805 14.8507C23.841 14.766 24.003 14.6925 24.165 14.6182C24.4275 14.745 24.69 14.8507 24.9533 14.9452ZM11.0805 42.2843C9.29166 41.7662 7.55591 41.0799 5.8965 40.2345C6.91425 39.5655 9.13125 37.9478 10.0328 36.0037C10.6507 36.489 12.0773 37.374 14.8553 38.0535C14.808 38.13 14.7502 38.2118 14.6947 38.292C12.3233 37.671 10.9748 36.8857 10.953 36.8722L10.626 36.6772L10.4692 37.0275C10.263 37.4865 9.77925 37.5555 9.51 37.5555C9.435 37.5555 9.38475 37.5503 9.378 37.5495L9.11025 37.5105L9.01275 37.767C8.81325 38.2905 7.99425 38.9745 7.69425 39.1942L7.19325 39.5618L7.76625 39.7965C7.97925 39.8835 8.037 39.9637 8.04 39.9847C8.0475 40.0365 7.95675 40.173 7.86 40.2517L7.4235 40.6035L7.93125 40.8382C8.9715 41.3182 10.1498 41.7157 11.328 42.0435C11.2343 42.1357 11.1533 42.2145 11.0805 42.2843ZM17.1285 39.4897C18.177 39.6367 19.3387 39.7298 20.6077 39.7298H20.6085C20.8725 39.7298 21.1403 39.7253 21.4132 39.717C21.4314 39.7736 21.4574 39.8274 21.4905 39.8767C21.5572 39.978 21.6472 40.062 21.7612 40.1273L19.8472 41.763C19.8108 41.7614 19.7743 41.7607 19.7377 41.7607C18.885 41.7607 18.249 42.0742 17.9437 42.6322C16.7872 42.4847 15.6361 42.2979 14.4923 42.072C15.4117 41.2538 16.2915 40.3921 17.1285 39.4897ZM8.61675 40.3875C8.69175 40.2458 8.7405 40.074 8.71425 39.8865C8.68932 39.7173 8.60822 39.5615 8.484 39.444C8.82075 39.1553 9.285 38.7098 9.54 38.2485C10.1198 38.2402 10.5982 38.0205 10.8997 37.632C11.4075 37.8975 12.5512 38.4338 14.241 38.8988C13.5503 39.765 12.6195 40.7475 11.8958 41.478C10.7678 41.1795 9.6315 40.8195 8.61675 40.3875ZM19.305 43.5443L19.1512 43.545C18.5055 43.545 16.3658 43.4925 13.539 42.9038C13.638 42.8198 13.7408 42.7335 13.836 42.651C16.1295 43.1302 17.979 43.3357 18.1178 43.3515L18.3923 43.3807L18.477 43.1145C18.6622 42.54 19.3455 42.4552 19.737 42.4552C19.8442 42.4552 19.9155 42.462 19.9237 42.4627L20.0693 42.4785L23.394 39.6375L22.5052 39.6082C22.2083 39.5978 22.083 39.531 22.0522 39.4852L22.2405 38.9925L21.72 39.0143C21.3405 39.0308 20.97 39.039 20.6077 39.039H20.607C19.56 39.039 18.5887 38.97 17.691 38.8612L17.8995 38.6152C19.7115 38.8575 21.8812 39.0068 24.501 38.988C23.8755 39.8655 22.3155 41.7307 19.305 43.5443ZM26.823 40.2855V41.6543C26.3962 41.6543 25.9808 41.6528 25.5743 41.6497L25.452 40.1092L24.4365 40.1917C25.1205 39.3833 25.4122 38.844 25.4385 38.7952L25.7137 38.2747L25.1325 38.2853C19.569 38.3872 15.9405 37.7243 13.65 36.9878C13.4827 36.3113 13.386 35.5462 13.386 34.653C13.386 28.5607 17.2792 19.3522 22.4482 15.6202C23.364 16.506 24.753 16.8937 26.073 16.032C26.3625 15.843 26.6145 15.5955 26.8507 15.3323C26.907 15.3338 26.9648 15.3465 27.0217 15.3465C27.2107 15.3465 27.4028 15.3308 27.594 15.3068C27.8363 15.4035 28.0732 15.501 28.293 15.5978C29.3452 16.0613 30.2438 15.7733 30.8573 15.1343C35.592 17.9993 39.3855 25.578 40.3838 31.704C38.2192 32.5695 34.7857 33.414 29.5163 33.5625C30.5557 32.9685 31.3358 31.9695 31.0553 30.657C30.7605 29.2695 29.601 28.8795 28.4002 28.8158C28.3973 28.164 28.3972 27.5138 28.4017 26.862C28.77 27.0248 29.1232 27.2122 29.4442 27.4125C30.0112 27.7687 30.5243 26.8455 29.961 26.4893C29.4726 26.1822 28.9514 25.9309 28.407 25.74C28.4145 24.9855 28.4182 24.2325 28.4182 23.4795C28.419 22.7895 27.3938 22.7895 27.3938 23.4795C27.3938 24.1418 27.3893 24.8032 27.3833 25.464C26.8375 25.3689 26.2803 25.3595 25.7318 25.4363C25.6426 24.9398 25.5345 24.447 25.4078 23.9587C25.2383 23.2943 24.2482 23.5755 24.42 24.2423C24.546 24.7215 24.6488 25.1985 24.7335 25.6823C24.69 25.6987 24.6427 25.707 24.6 25.7265C23.211 26.2762 22.3635 27.678 23.3797 28.9852C23.853 29.5942 24.4718 29.8403 25.149 29.922C25.1857 30.8242 25.209 31.7273 25.2352 32.6287C24.7815 32.334 24.3682 31.956 23.994 31.5563C23.5305 31.0673 22.8067 31.8225 23.2695 32.3108C23.8987 32.9805 24.5595 33.4868 25.2757 33.8108C25.308 34.581 25.3538 35.3535 25.4288 36.12C25.4948 36.8003 26.5208 36.804 26.454 36.12C26.3908 35.457 26.344 34.7926 26.3137 34.1273C26.7037 34.1947 27.1132 34.212 27.5482 34.1707C27.597 34.8802 27.654 35.5897 27.735 36.2992C27.7815 36.7057 28.17 36.8655 28.4565 36.783L28.3927 38.256C27.9412 38.2965 27.4807 38.334 27.0007 38.3655L26.4293 38.403L26.7337 38.895C26.7645 38.9445 27.1102 39.4912 27.882 40.287H26.823V40.2855ZM45.489 35.349C44.5462 35.7923 43.3538 36.1987 42.1388 36.5535C41.3918 35.7817 40.4362 34.752 39.723 33.8385C41.3123 33.357 42.2018 32.8605 42.603 32.5928C42.9202 32.8725 43.3403 33.018 43.8375 33.0173C44.0025 33.0173 44.1488 33.0015 44.2612 32.9835C44.6213 33.45 45.2017 33.9885 45.5648 34.3102C45.393 34.4865 45.3097 34.6815 45.3165 34.8923C45.3225 35.0723 45.3945 35.2253 45.489 35.349ZM40.1227 37.8135C40.2758 37.9485 40.434 38.0865 40.5952 38.226C37.5547 39.0322 35.292 39.12 34.7992 39.1283C31.6507 37.2075 30.0188 35.175 29.3895 34.26C32.0243 34.194 34.2023 33.9555 36.0188 33.627C36.0926 33.7177 36.1674 33.8077 36.243 33.897C34.783 34.1244 33.3115 34.2704 31.8352 34.3343L31.23 34.3597L31.563 34.869C31.5623 34.8698 31.4947 34.9958 31.0477 35.0827L30.321 35.2245L33.894 38.1173L34.0605 38.0723C34.0643 38.0715 34.3792 37.9867 34.7603 37.9867C35.31 37.9867 35.6858 38.154 35.8748 38.481L35.9948 38.688L36.228 38.6468C37.5344 38.4086 38.8333 38.1307 40.1227 37.8135ZM29.55 35.6092L28.6965 35.5628C28.6568 35.1367 28.617 34.7108 28.587 34.2848C28.737 34.5338 29.0445 35.0018 29.55 35.6092ZM28.494 32.8635C28.4448 31.8539 28.415 30.8435 28.4048 29.8328C28.5278 29.8372 28.6493 29.8485 28.7648 29.865C30.0907 30.066 30.4373 31.5405 29.4022 32.37C29.1322 32.5837 28.821 32.7405 28.494 32.8635ZM36.3232 37.9275C35.9872 37.5127 35.4525 37.2952 34.761 37.2952C34.4722 37.2952 34.218 37.3342 34.0575 37.3657L31.8113 35.5455C31.998 35.4383 32.124 35.3025 32.193 35.136C32.21 35.0946 32.223 35.0516 32.232 35.0077C34.0125 34.9102 35.5125 34.7325 36.7808 34.515C37.3958 35.2013 38.2995 36.1478 39.498 37.248C38.0257 37.5983 36.798 37.8382 36.3232 37.9275ZM27.3787 29.8597C27.393 30.9465 27.42 32.0362 27.4778 33.1222C27.381 33.1372 27.2858 33.156 27.1905 33.1658C26.868 33.2025 26.562 33.1755 26.271 33.102C26.2342 32.052 26.2102 30.9998 26.1705 29.949C26.574 29.9303 26.9827 29.8905 27.3787 29.8597ZM26.1188 28.911C26.0719 28.0869 25.9943 27.2648 25.8862 26.4465C26.3834 26.3782 26.8889 26.4039 27.3765 26.5222C27.3711 27.289 27.3699 28.0557 27.3728 28.8225C27.0435 28.8405 26.7308 28.872 26.4555 28.8967C26.3435 28.9055 26.2311 28.9102 26.1188 28.911ZM25.0897 28.7798C25.026 28.7625 24.963 28.749 24.8978 28.7273C24.5977 28.6255 24.326 28.4541 24.105 28.227C23.4645 27.6293 24.3435 27.0428 24.8978 26.7645C24.9848 27.432 25.0448 28.1055 25.0897 28.7798ZM33.3675 43.3792C30.1118 41.7158 28.365 39.867 27.6712 39.0105C28.17 38.973 28.6418 38.928 29.109 38.8807L34.4475 42.3457L46.155 39.1297C40.1175 42.7687 34.1528 43.323 33.3675 43.3792ZM43.0365 37.4618C42.9405 37.3657 42.8257 37.2518 42.69 37.1145C44.022 36.711 45.3105 36.243 46.2712 35.7285L46.8555 35.4143L46.263 35.1128C46.1302 35.0445 46.0005 34.9193 45.9983 34.872C45.9998 34.854 46.0522 34.758 46.2795 34.6275L46.713 34.3785L46.3275 34.0575C46.3155 34.0477 45.1133 33.0495 44.691 32.4067L44.5515 32.1968L44.3122 32.2665C44.31 32.2665 44.1045 32.3258 43.8375 32.3258C43.425 32.3265 43.116 32.1915 42.918 31.926L42.699 31.6357L42.4245 31.872C42.4103 31.884 41.5605 32.5807 39.2812 33.2393C39.2062 33.1311 39.1339 33.0211 39.0645 32.9093C41.8282 32.0715 43.2405 31.0575 43.8525 30.5025C44.835 32.628 47.1742 34.3402 48.1898 35.0115C46.5584 35.9987 44.8319 36.8196 43.0365 37.4618Z"/><path d="M36.285 35.3378C35.5372 35.1346 34.6935 35.2733 34.398 35.6446C34.1047 36.0173 34.4752 36.4868 35.2223 36.6916C35.9708 36.8948 36.8137 36.7553 37.1092 36.3833C37.4025 36.0106 37.0335 35.5426 36.285 35.3378Z"/></g><defs><filter id="ifilter0_d_251_111" x="-1" y="0" width="56" height="56" filterUnits="userSpaceOnUse" color-interpolation-filters="sRGB"><feFlood flood-opacity="0" result="BackgroundImageFix"/><feColorMatrix in="SourceAlpha" values="0 0 0 0 0 0 0 0 0 0 0 0 0 0 0 0 0 0 127 0" result="hardAlpha"/><feOffset dy="4"/><feGaussianBlur stdDeviation="2"/><feComposite in2="hardAlpha" operator="out"/><feColorMatrix values="0 0 0 0 0 0 0 0 0 0 0 0 0 0 0 0 0 0 0.25 0"/><feBlend in2="BackgroundImageFix" result="effect1_dropShadow_251_111"/><feBlend in="SourceGraphic" in2="effect1_dropShadow_251_111" result="shape"/></filter></defs></symbol><symbol viewBox="0 0 40 37" id="svg-star"><path d="M20 1.61804L24.0148 13.9742L24.127 14.3197H24.4903H37.4823L26.9715 21.9562L26.6776 22.1697L26.7899 22.5152L30.8046 34.8713L20.2939 27.2348L20 27.0213L19.7061 27.2348L9.19535 34.8713L13.2101 22.5152L13.3224 22.1697L13.0285 21.9562L2.51771 14.3197H15.5097H15.873L15.9852 13.9742L20 1.61804Z" fill-opacity=".4"/></symbol><symbol viewBox="0 0 40 37" id="svg-star-solid"><path d="M20 1.61804L24.0148 13.9742L24.127 14.3197H24.4903H37.4823L26.9715 21.9562L26.6776 22.1697L26.7899 22.5152L30.8046 34.8713L20.2939 27.2348L20 27.0213L19.7061 27.2348L9.19535 34.8713L13.2101 22.5152L13.3224 22.1697L13.0285 21.9562L2.51771 14.3197H15.5097H15.873L15.9852 13.9742L20 1.61804Z"/></symbol><symbol viewBox="0 0 34 28" id="svg-twiter"><path d="M32.7778 1.01457C31.3946 1.99332 29.863 2.74191 28.2422 3.23151C27.3723 2.22811 26.2162 1.51692 24.9302 1.19414C23.6442 0.871354 22.2904 0.952548 21.0519 1.42674C19.8134 1.90093 18.75 2.74523 18.0054 3.84546C17.2609 4.94569 16.8711 6.24877 16.8889 7.57844V9.02742C14.3505 9.09345 11.8352 8.5287 9.56701 7.38348C7.29885 6.23825 5.34824 4.5481 3.88889 2.46355C3.88889 2.46355 -1.88889 15.5043 11.1111 21.3003C8.13632 23.3259 4.59256 24.3416 1 24.1982C14 31.4431 29.8889 24.1982 29.8889 7.53497C29.8876 7.13136 29.8489 6.72875 29.7733 6.33232C31.2475 4.87391 32.2879 3.03258 32.7778 1.01457V1.01457Z"/></symbol></svg>